<svg xmlns="http://www.w3.org/2000/svg" xmlns:xlink="http://www.w3.org/1999/xlink" xmlns:lucid="lucid" width="1360" height="659.73"><g transform="translate(-59.99999999999997 -60.000000000000014)" lucid:page-tab-id="0_0"><path d="M80 318.92c0-4.4 3.58-8 8-8h252.33c4.4 0 8 3.6 8 8v104c0 4.42-3.6 8-8 8H88c-4.42 0-8-3.58-8-8z" stroke="#000" stroke-opacity="0" fill="#9391ff"/><use xlink:href="#a" transform="matrix(1,0,0,1,84.79999999999997,315.72419967232673) translate(62.95679012345683 42.224305555555546)"/><use xlink:href="#b" transform="matrix(1,0,0,1,84.79999999999997,315.72419967232673) translate(171.35185185185185 42.224305555555546)"/><use xlink:href="#c" transform="matrix(1,0,0,1,84.79999999999997,315.72419967232673) translate(66.04320987654324 95.55763888888886)"/><use xlink:href="#d" transform="matrix(1,0,0,1,84.79999999999997,315.72419967232673) translate(115.30246913580248 95.55763888888886)"/><use xlink:href="#e" transform="matrix(1,0,0,1,84.79999999999997,315.72419967232673) translate(153.57407407407408 95.55763888888886)"/><path d="M880 175.9c0 52.98-62.68 95.92-140 95.92s-140-42.94-140-95.9C600 122.93 662.68 80 740 80s140 42.94 140 95.9z" stroke="#000" stroke-opacity="0" fill="#dedfff"/><use xlink:href="#f" transform="matrix(1,0,0,1,604.8,84.80000000000001) translate(43.03586419753091 73.06805555555555)"/><use xlink:href="#g" transform="matrix(1,0,0,1,604.8,84.80000000000001) translate(203.28277777777777 73.06805555555555)"/><use xlink:href="#h" transform="matrix(1,0,0,1,604.8,84.80000000000001) translate(64.20253086419756 126.40138888888886)"/><use xlink:href="#i" transform="matrix(1,0,0,1,604.8,84.80000000000001) translate(113.4617901234568 126.40138888888886)"/><use xlink:href="#j" transform="matrix(1,0,0,1,604.8,84.80000000000001) translate(151.7333950617284 126.40138888888886)"/><path d="M880 386.67c0 52.98-62.68 95.92-140 95.92s-140-42.95-140-95.93c0-52.97 62.68-95.9 140-95.9s140 42.93 140 95.9z" stroke="#000" stroke-opacity="0" fill="#dedfff"/><use xlink:href="#k" transform="matrix(1,0,0,1,604.8,295.56179469656803) translate(43.03586419753091 73.06805555555555)"/><use xlink:href="#l" transform="matrix(1,0,0,1,604.8,295.56179469656803) translate(203.28277777777777 73.06805555555555)"/><use xlink:href="#m" transform="matrix(1,0,0,1,604.8,295.56179469656803) translate(71.54820987654324 126.40138888888886)"/><use xlink:href="#n" transform="matrix(1,0,0,1,604.8,295.56179469656803) translate(120.80746913580248 126.40138888888886)"/><use xlink:href="#o" transform="matrix(1,0,0,1,604.8,295.56179469656803) translate(159.07907407407407 126.40138888888886)"/><path d="M880 603.82c0 52.97-62.68 95.9-140 95.9s-140-42.93-140-95.9c0-52.97 62.68-95.9 140-95.9s140 42.93 140 95.9z" stroke="#000" stroke-opacity="0" fill="#dedfff"/><use xlink:href="#f" transform="matrix(1,0,0,1,604.8,512.7075266703985) translate(43.03586419753091 73.06805555555555)"/><use xlink:href="#p" transform="matrix(1,0,0,1,604.8,512.7075266703985) translate(203.28277777777777 73.06805555555555)"/><use xlink:href="#h" transform="matrix(1,0,0,1,604.8,512.7075266703985) translate(71.54820987654324 126.40138888888886)"/><use xlink:href="#i" transform="matrix(1,0,0,1,604.8,512.7075266703985) translate(120.80746913580248 126.40138888888886)"/><use xlink:href="#q" transform="matrix(1,0,0,1,604.8,512.7075266703985) translate(159.07907407407407 126.40138888888886)"/><path d="M1131.67 283.76c0-4.42 3.6-8 8-8H1392c4.42 0 8 3.58 8 8V458.1c0 4.4-3.58 8-8 8h-252.33c-4.4 0-8-3.6-8-8z" stroke="#000" stroke-opacity="0" fill="#9391ff"/><use xlink:href="#a" transform="matrix(1,0,0,1,1136.4736439959781,280.561794696518) translate(62.95679012345683 72.69305555555555)"/><use xlink:href="#r" transform="matrix(1,0,0,1,1136.4736439959781,280.561794696518) translate(171.35185185185185 72.69305555555555)"/><use xlink:href="#c" transform="matrix(1,0,0,1,1136.4736439959781,280.561794696518) translate(66.04320987654324 126.02638888888886)"/><use xlink:href="#d" transform="matrix(1,0,0,1,1136.4736439959781,280.561794696518) translate(115.30246913580248 126.02638888888886)"/><use xlink:href="#s" transform="matrix(1,0,0,1,1136.4736439959781,280.561794696518) translate(153.57407407407408 126.02638888888886)"/><path d="M1257.08 175.83l3 1.25 2.6 2 2 2.6 1.24 3 .42 3.2v87.38h-1v-87.32l-.4-3-1.14-2.77-1.83-2.4-2.4-1.82-2.75-1.14-3.02-.4h-104.9v-1h104.97zm-360.7.58v-1h123.6v1zM1266.34 275.76h-1v-.5h1zM895.88 180.55l-14.26-4.64 14.26-4.62z" fill="#333"/><path d="M896.38 181.24L880 175.9l16.38-5.3zm-13.14-5.33l12.14 3.96v-7.9z" fill="#333"/><use xlink:href="#t" transform="matrix(1,0,0,1,1019.9846949891069,149.11235893931894) translate(0.0049999999999954525 35.733333333333285)"/><use xlink:href="#u" transform="matrix(1,0,0,1,1019.9846949891069,149.11235893931894) translate(104.10314814814801 35.733333333333285)"/><path d="M994.97 604.32h-98.6v-1h98.6zm271.37-12.47l-.42 3.2-1.25 3-2 2.6-2.6 2-3 1.25-3.2.42h-130.63v-1h130.56l3.02-.4 2.76-1.14 2.4-1.83 1.82-2.4 1.14-2.75.4-3V466.6h1zM1266.34 466.6h-1v-.5h1zM895.88 608.46l-14.26-4.64 14.26-4.64z" fill="#333"/><path d="M896.38 609.14L880 603.82l16.38-5.32zm-13.14-5.32l12.14 3.95v-7.9z" fill="#333"/><use xlink:href="#v" transform="matrix(1,0,0,1,994.9664993211456,577.1532189430508) translate(0.0049999999999954525 35.55555555555555)"/><use xlink:href="#w" transform="matrix(1,0,0,1,994.9664993211456,577.1532189430508) translate(103.58524691358022 35.55555555555555)"/><path d="M214.66 591.8l.4 3 1.14 2.76 1.83 2.4 2.4 1.82 2.75 1.14 3.02.4h66.1v1h-66.17l-3.2-.42-3-1.24-2.6-2-2-2.6-1.25-3-.42-3.2V431.4h1zm368.96 11.52v1h-162.4v-1z" fill="#333"/><path d="M214.66 431.44h-1v-.52h1zM598.38 603.82l-14.26 4.64v-9.28z" fill="#333"/><path d="M600 603.82l-16.38 5.32V598.5zm-15.38 3.95l12.14-3.95-12.14-3.95z" fill="#333"/><g><use xlink:href="#x" transform="matrix(1,0,0,1,292.2935738212217,577.0198856097174) translate(0.0049999999999954525 35.7333333333333)"/><use xlink:href="#y" transform="matrix(1,0,0,1,292.2935738212217,577.0198856097174) translate(104.10314814814802 35.7333333333333)"/></g><path d="M585.27 371.42v1h-45.82v-1zm-236.44 0v-1h61.7v1z" fill="#333"/><path d="M348.84 371.42h-.5v-1h.5zM600.04 371.92l-14.27 4.64v-9.27z" fill="#333"/><path d="M601.66 371.92l-16.4 5.33V366.6zm-15.4 3.95l12.16-3.95-12.15-3.94z" fill="#333"/><g><use xlink:href="#x" transform="matrix(1,0,0,1,410.5356594942866,344.624199679411) translate(0.0049999999999954525 35.7333333333333)"/><use xlink:href="#z" transform="matrix(1,0,0,1,410.5356594942866,344.624199679411) translate(104.10314814814802 35.7333333333333)"/></g><path d="M940.55 372.42h-45.82v-1h45.82zm190.62-1h-61.7v-1h61.7zM1131.67 371.42h-.5v-1h.5zM894.23 376.56l-14.27-4.64 14.27-4.63z" fill="#333"/><path d="M894.73 377.25l-16.4-5.33 16.4-5.32zm-13.15-5.33l12.15 3.95v-7.9z" fill="#333"/><g><use xlink:href="#x" transform="matrix(1,0,0,1,940.5526466070075,344.6241996810136) translate(0.0049999999999954525 35.7333333333333)"/><use xlink:href="#A" transform="matrix(1,0,0,1,940.5526466070075,344.6241996810136) translate(104.10314814814802 35.7333333333333)"/></g><path d="M301.52 176.4H226.2l-3.02.4-2.76 1.15-2.4 1.83-1.82 2.4-1.14 2.75-.4 3v122.5h-1V187.87l.42-3.2 1.25-3 2-2.6 2.6-2 3-1.25 3.2-.42h75.4zm282.1 0H430.44v-1h153.18z" fill="#333"/><path d="M214.66 310.92h-1v-.5h1zM598.38 175.9l-14.26 4.65v-9.27z" fill="#333"/><path d="M600 175.9l-16.38 5.34V170.6zm-15.38 3.96l12.14-3.95-12.14-3.93z" fill="#333"/><g><use xlink:href="#x" transform="matrix(1,0,0,1,301.5246081640913,149.1123589393189) translate(0.0049999999999954525 35.7333333333333)"/><use xlink:href="#z" transform="matrix(1,0,0,1,301.5246081640913,149.1123589393189) translate(104.10314814814802 35.7333333333333)"/></g><defs><path fill="#fff" d="M240 0l2-218c-23 76-54 145-80 218h-23L58-218 59 0H30v-248h44l77 211c21-75 51-140 76-211h43V0h-30" id="B"/><path fill="#fff" d="M24-231v-30h32v30H24zM24 0v-190h32V0H24" id="C"/><path fill="#fff" d="M117-194c89-4 53 116 60 194h-32v-121c0-31-8-49-39-48C34-167 62-67 57 0H25l-1-190h30c1 10-1 24 2 32 11-22 29-35 61-36" id="D"/><path fill="#fff" d="M100-194c63 0 86 42 84 106H49c0 40 14 67 53 68 26 1 43-12 49-29l28 8c-11 28-37 45-77 45C44 4 14-33 15-96c1-61 26-98 85-98zm52 81c6-60-76-77-97-28-3 7-6 17-6 28h103" id="E"/><g id="a"><use transform="matrix(0.12345679012345674,0,0,0.12345679012345674,0,0)" xlink:href="#B"/><use transform="matrix(0.12345679012345674,0,0,0.12345679012345674,36.91358024691357,0)" xlink:href="#C"/><use transform="matrix(0.12345679012345674,0,0,0.12345679012345674,46.66666666666665,0)" xlink:href="#D"/><use transform="matrix(0.12345679012345674,0,0,0.12345679012345674,71.358024691358,0)" xlink:href="#E"/></g><path fill="#fff" d="M27 0v-27h64v-190l-56 39v-29l58-41h29v221h61V0H27" id="F"/><use transform="matrix(0.12345679012345674,0,0,0.12345679012345674,0,0)" xlink:href="#F" id="b"/><path fill="#fff" d="M87 75C49 33 22-17 22-94c0-76 28-126 65-167h31c-38 41-64 92-64 168S80 34 118 75H87" id="G"/><path fill="#fff" d="M179-190L93 31C79 59 56 82 12 73V49c39 6 53-20 64-50L1-190h34L92-34l54-156h33" id="H"/><g id="c"><use transform="matrix(0.12345679012345674,0,0,0.12345679012345674,0,0)" xlink:href="#G"/><use transform="matrix(0.12345679012345674,0,0,0.12345679012345674,14.691358024691352,0)" xlink:href="#H"/></g><path fill="#fff" d="M18-150v-26h174v26H18zm0 90v-26h174v26H18" id="I"/><use transform="matrix(0.12345679012345674,0,0,0.12345679012345674,0,0)" xlink:href="#I" id="d"/><path fill="#fff" d="M155-56V0h-30v-56H8v-25l114-167h33v167h35v25h-35zm-30-156c-27 46-58 90-88 131h88v-131" id="J"/><path fill="#fff" d="M33-261c38 41 65 92 65 168S71 34 33 75H2C39 34 66-17 66-93S39-220 2-261h31" id="K"/><g id="e"><use transform="matrix(0.12345679012345674,0,0,0.12345679012345674,0,0)" xlink:href="#J"/><use transform="matrix(0.12345679012345674,0,0,0.12345679012345674,24.691358024691347,0)" xlink:href="#K"/></g><path fill="#282c33" d="M63-220v92h138v28H63V0H30v-248h175v28H63" id="L"/><path fill="#282c33" d="M141-36C126-15 110 5 73 4 37 3 15-17 15-53c-1-64 63-63 125-63 3-35-9-54-41-54-24 1-41 7-42 31l-33-3c5-37 33-52 76-52 45 0 72 20 72 64v82c-1 20 7 32 28 27v20c-31 9-61-2-59-35zM48-53c0 20 12 33 32 33 41-3 63-29 60-74-43 2-92-5-92 41" id="M"/><path fill="#282c33" d="M96-169c-40 0-48 33-48 73s9 75 48 75c24 0 41-14 43-38l32 2c-6 37-31 61-74 61-59 0-76-41-82-99-10-93 101-131 147-64 4 7 5 14 7 22l-32 3c-4-21-16-35-41-35" id="N"/><path fill="#282c33" d="M59-47c-2 24 18 29 38 22v24C64 9 27 4 27-40v-127H5v-23h24l9-43h21v43h35v23H59v120" id="O"/><path fill="#282c33" d="M100-194c62-1 85 37 85 99 1 63-27 99-86 99S16-35 15-95c0-66 28-99 85-99zM99-20c44 1 53-31 53-75 0-43-8-75-51-75s-53 32-53 75 10 74 51 75" id="P"/><path fill="#282c33" d="M114-163C36-179 61-72 57 0H25l-1-190h30c1 12-1 29 2 39 6-27 23-49 58-41v29" id="Q"/><path fill="#282c33" d="M179-190L93 31C79 59 56 82 12 73V49c39 6 53-20 64-50L1-190h34L92-34l54-156h33" id="R"/><g id="f"><use transform="matrix(0.12345679012345674,0,0,0.12345679012345674,0,0)" xlink:href="#L"/><use transform="matrix(0.12345679012345674,0,0,0.12345679012345674,27.037037037037027,0)" xlink:href="#M"/><use transform="matrix(0.12345679012345674,0,0,0.12345679012345674,51.72839506172838,0)" xlink:href="#N"/><use transform="matrix(0.12345679012345674,0,0,0.12345679012345674,73.95061728395059,0)" xlink:href="#O"/><use transform="matrix(0.12345679012345674,0,0,0.12345679012345674,86.29629629629626,0)" xlink:href="#P"/><use transform="matrix(0.12345679012345674,0,0,0.12345679012345674,110.98765432098762,0)" xlink:href="#Q"/><use transform="matrix(0.12345679012345674,0,0,0.12345679012345674,125.67901234567897,0)" xlink:href="#R"/></g><path fill="#282c33" d="M27 0v-27h64v-190l-56 39v-29l58-41h29v221h61V0H27" id="S"/><use transform="matrix(0.12345679012345674,0,0,0.12345679012345674,0,0)" xlink:href="#S" id="g"/><path fill="#282c33" d="M87 75C49 33 22-17 22-94c0-76 28-126 65-167h31c-38 41-64 92-64 168S80 34 118 75H87" id="T"/><g id="h"><use transform="matrix(0.12345679012345674,0,0,0.12345679012345674,0,0)" xlink:href="#T"/><use transform="matrix(0.12345679012345674,0,0,0.12345679012345674,14.691358024691352,0)" xlink:href="#R"/></g><path fill="#282c33" d="M18-150v-26h174v26H18zm0 90v-26h174v26H18" id="U"/><use transform="matrix(0.12345679012345674,0,0,0.12345679012345674,0,0)" xlink:href="#U" id="i"/><path fill="#282c33" d="M16-82v-28h88v28H16" id="V"/><path fill="#282c33" d="M54-142c48-35 137-8 131 61C196 18 31 33 14-55l32-4c7 23 22 37 52 37 35-1 51-22 54-58 4-55-73-65-99-34H22l8-134h141v27H59" id="W"/><path fill="#282c33" d="M33-261c38 41 65 92 65 168S71 34 33 75H2C39 34 66-17 66-93S39-220 2-261h31" id="X"/><g id="j"><use transform="matrix(0.12345679012345674,0,0,0.12345679012345674,0,0)" xlink:href="#V"/><use transform="matrix(0.12345679012345674,0,0,0.12345679012345674,14.691358024691352,0)" xlink:href="#W"/><use transform="matrix(0.12345679012345674,0,0,0.12345679012345674,39.3827160493827,0)" xlink:href="#X"/></g><g id="k"><use transform="matrix(0.12345679012345674,0,0,0.12345679012345674,0,0)" xlink:href="#L"/><use transform="matrix(0.12345679012345674,0,0,0.12345679012345674,27.037037037037027,0)" xlink:href="#M"/><use transform="matrix(0.12345679012345674,0,0,0.12345679012345674,51.72839506172838,0)" xlink:href="#N"/><use transform="matrix(0.12345679012345674,0,0,0.12345679012345674,73.95061728395059,0)" xlink:href="#O"/><use transform="matrix(0.12345679012345674,0,0,0.12345679012345674,86.29629629629626,0)" xlink:href="#P"/><use transform="matrix(0.12345679012345674,0,0,0.12345679012345674,110.98765432098762,0)" xlink:href="#Q"/><use transform="matrix(0.12345679012345674,0,0,0.12345679012345674,125.67901234567897,0)" xlink:href="#R"/></g><path fill="#282c33" d="M101-251c82-7 93 87 43 132L82-64C71-53 59-42 53-27h129V0H18c2-99 128-94 128-182 0-28-16-43-45-43s-46 15-49 41l-32-3c6-41 34-60 81-64" id="Y"/><use transform="matrix(0.12345679012345674,0,0,0.12345679012345674,0,0)" xlink:href="#Y" id="l"/><g id="m"><use transform="matrix(0.12345679012345674,0,0,0.12345679012345674,0,0)" xlink:href="#T"/><use transform="matrix(0.12345679012345674,0,0,0.12345679012345674,14.691358024691352,0)" xlink:href="#R"/></g><use transform="matrix(0.12345679012345674,0,0,0.12345679012345674,0,0)" xlink:href="#U" id="n"/><path fill="#282c33" d="M101-251c68 0 85 55 85 127S166 4 100 4C33 4 14-52 14-124c0-73 17-127 87-127zm-1 229c47 0 54-49 54-102s-4-102-53-102c-51 0-55 48-55 102 0 53 5 102 54 102" id="Z"/><g id="o"><use transform="matrix(0.12345679012345674,0,0,0.12345679012345674,0,0)" xlink:href="#Z"/><use transform="matrix(0.12345679012345674,0,0,0.12345679012345674,24.691358024691347,0)" xlink:href="#X"/></g><path fill="#282c33" d="M126-127c33 6 58 20 58 59 0 88-139 92-164 29-3-8-5-16-6-25l32-3c6 27 21 44 54 44 32 0 52-15 52-46 0-38-36-46-79-43v-28c39 1 72-4 72-42 0-27-17-43-46-43-28 0-47 15-49 41l-32-3c6-42 35-63 81-64 48-1 79 21 79 65 0 36-21 52-52 59" id="aa"/><use transform="matrix(0.12345679012345674,0,0,0.12345679012345674,0,0)" xlink:href="#aa" id="p"/><g id="q"><use transform="matrix(0.12345679012345674,0,0,0.12345679012345674,0,0)" xlink:href="#S"/><use transform="matrix(0.12345679012345674,0,0,0.12345679012345674,24.691358024691347,0)" xlink:href="#X"/></g><path fill="#fff" d="M101-251c82-7 93 87 43 132L82-64C71-53 59-42 53-27h129V0H18c2-99 128-94 128-182 0-28-16-43-45-43s-46 15-49 41l-32-3c6-41 34-60 81-64" id="ab"/><use transform="matrix(0.12345679012345674,0,0,0.12345679012345674,0,0)" xlink:href="#ab" id="r"/><path fill="#fff" d="M134-131c28 9 52 24 51 62-1 50-34 73-85 73S17-19 16-69c0-36 21-54 49-61-75-25-45-126 34-121 46 3 78 18 79 63 0 33-17 51-44 57zm-34-11c31 1 46-15 46-44 0-28-17-43-47-42-29 0-46 13-45 42 1 28 16 44 46 44zm1 122c35 0 51-18 51-52 0-30-18-46-53-46-33 0-51 17-51 47 0 34 19 51 53 51" id="ac"/><g id="s"><use transform="matrix(0.12345679012345674,0,0,0.12345679012345674,0,0)" xlink:href="#ac"/><use transform="matrix(0.12345679012345674,0,0,0.12345679012345674,24.691358024691347,0)" xlink:href="#K"/></g><path fill="#333" d="M212-179c-10-28-35-45-73-45-59 0-87 40-87 99 0 60 29 101 89 101 43 0 62-24 78-52l27 14C228-24 195 4 139 4 59 4 22-46 18-125c-6-104 99-153 187-111 19 9 31 26 39 46" id="ad"/><path fill="#333" d="M100-194c62-1 85 37 85 99 1 63-27 99-86 99S16-35 15-95c0-66 28-99 85-99zM99-20c44 1 53-31 53-75 0-43-8-75-51-75s-53 32-53 75 10 74 51 75" id="ae"/><path fill="#333" d="M135-143c-3-34-86-38-87 0 15 53 115 12 119 90S17 21 10-45l28-5c4 36 97 45 98 0-10-56-113-15-118-90-4-57 82-63 122-42 12 7 21 19 24 35" id="af"/><path fill="#333" d="M59-47c-2 24 18 29 38 22v24C64 9 27 4 27-40v-127H5v-23h24l9-43h21v43h35v23H59v120" id="ag"/><g id="t"><use transform="matrix(0.1240740740740739,0,0,0.1240740740740739,0,0)" xlink:href="#ad"/><use transform="matrix(0.1240740740740739,0,0,0.1240740740740739,32.13518518518514,0)" xlink:href="#ae"/><use transform="matrix(0.1240740740740739,0,0,0.1240740740740739,56.949999999999925,0)" xlink:href="#af"/><use transform="matrix(0.1240740740740739,0,0,0.1240740740740739,79.28333333333323,0)" xlink:href="#ag"/></g><path fill="#333" d="M126-127c33 6 58 20 58 59 0 88-139 92-164 29-3-8-5-16-6-25l32-3c6 27 21 44 54 44 32 0 52-15 52-46 0-38-36-46-79-43v-28c39 1 72-4 72-42 0-27-17-43-46-43-28 0-47 15-49 41l-32-3c6-42 35-63 81-64 48-1 79 21 79 65 0 36-21 52-52 59" id="ah"/><use transform="matrix(0.1240740740740739,0,0,0.1240740740740739,0,0)" xlink:href="#ah" id="u"/><g id="v"><use transform="matrix(0.12345679012345677,0,0,0.12345679012345677,0,0)" xlink:href="#ad"/><use transform="matrix(0.12345679012345677,0,0,0.12345679012345677,31.975308641975303,0)" xlink:href="#ae"/><use transform="matrix(0.12345679012345677,0,0,0.12345679012345677,56.66666666666666,0)" xlink:href="#af"/><use transform="matrix(0.12345679012345677,0,0,0.12345679012345677,78.88888888888887,0)" xlink:href="#ag"/></g><path fill="#333" d="M99-251c64 0 84 50 84 122C183-37 130 33 47-8c-14-7-20-23-25-40l30-5c6 39 69 39 84 7 9-19 16-44 16-74-10 22-31 35-62 35-49 0-73-33-73-83 0-54 28-83 82-83zm-1 141c31-1 51-18 51-49 0-36-14-67-51-67-34 0-49 23-49 58 0 34 15 58 49 58" id="ai"/><use transform="matrix(0.12345679012345677,0,0,0.12345679012345677,0,0)" xlink:href="#ai" id="w"/><g id="x"><use transform="matrix(0.12407407407407395,0,0,0.12407407407407395,0,0)" xlink:href="#ad"/><use transform="matrix(0.12407407407407395,0,0,0.12407407407407395,32.13518518518515,0)" xlink:href="#ae"/><use transform="matrix(0.12407407407407395,0,0,0.12407407407407395,56.94999999999994,0)" xlink:href="#af"/><use transform="matrix(0.12407407407407395,0,0,0.12407407407407395,79.28333333333325,0)" xlink:href="#ag"/></g><path fill="#333" d="M54-142c48-35 137-8 131 61C196 18 31 33 14-55l32-4c7 23 22 37 52 37 35-1 51-22 54-58 4-55-73-65-99-34H22l8-134h141v27H59" id="aj"/><use transform="matrix(0.12407407407407395,0,0,0.12407407407407395,0,0)" xlink:href="#aj" id="y"/><path fill="#333" d="M155-56V0h-30v-56H8v-25l114-167h33v167h35v25h-35zm-30-156c-27 46-58 90-88 131h88v-131" id="ak"/><use transform="matrix(0.12407407407407395,0,0,0.12407407407407395,0,0)" xlink:href="#ak" id="z"/><use transform="matrix(0.12407407407407395,0,0,0.12407407407407395,0,0)" xlink:href="#ai" id="A"/></defs></g></svg>