<svg xmlns="http://www.w3.org/2000/svg" xmlns:xlink="http://www.w3.org/1999/xlink" xmlns:lucid="lucid" width="1360" height="659.73"><g transform="translate(-59.99999999999997 -60.000000000000014)" lucid:page-tab-id="0_0"><path d="M80 283.76c0-4.42 3.58-8 8-8h252.33c4.4 0 8 3.58 8 8V458.1c0 4.4-3.6 8-8 8H88c-4.42 0-8-3.6-8-8z" stroke="#000" stroke-opacity="0" fill="#9391ff"/><use xlink:href="#a" transform="matrix(1,0,0,1,84.79999999999997,280.561794696518) translate(62.95679012345683 72.69305555555555)"/><use xlink:href="#b" transform="matrix(1,0,0,1,84.79999999999997,280.561794696518) translate(171.35185185185185 72.69305555555555)"/><use xlink:href="#c" transform="matrix(1,0,0,1,84.79999999999997,280.561794696518) translate(90.1172839506173 126.02638888888886)"/><path d="M880 175.9c0 52.98-62.68 95.92-140 95.92s-140-42.94-140-95.9C600 122.93 662.68 80 740 80s140 42.94 140 95.9z" stroke="#000" stroke-opacity="0" fill="#dedfff"/><use xlink:href="#d" transform="matrix(1,0,0,1,604.8,84.80000000000001) translate(43.03586419753091 73.06805555555555)"/><use xlink:href="#e" transform="matrix(1,0,0,1,604.8,84.80000000000001) translate(203.28277777777777 73.06805555555555)"/><use xlink:href="#f" transform="matrix(1,0,0,1,604.8,84.80000000000001) translate(95.6222839506173 126.40138888888886)"/><path d="M880 386.67c0 52.98-62.68 95.92-140 95.92s-140-42.95-140-95.93c0-52.97 62.68-95.9 140-95.9s140 42.93 140 95.9z" stroke="#000" stroke-opacity="0" fill="#dedfff"/><use xlink:href="#d" transform="matrix(1,0,0,1,604.8,295.56179469656803) translate(43.03586419753091 73.06805555555555)"/><use xlink:href="#g" transform="matrix(1,0,0,1,604.8,295.56179469656803) translate(203.28277777777777 73.06805555555555)"/><use xlink:href="#h" transform="matrix(1,0,0,1,604.8,295.56179469656803) translate(95.6222839506173 126.40138888888886)"/><path d="M880 603.82c0 52.97-62.68 95.9-140 95.9s-140-42.93-140-95.9c0-52.97 62.68-95.9 140-95.9s140 42.93 140 95.9z" stroke="#000" stroke-opacity="0" fill="#dedfff"/><use xlink:href="#d" transform="matrix(1,0,0,1,604.8,512.7075266703985) translate(43.03586419753091 73.06805555555555)"/><use xlink:href="#i" transform="matrix(1,0,0,1,604.8,512.7075266703985) translate(203.28277777777777 73.06805555555555)"/><use xlink:href="#j" transform="matrix(1,0,0,1,604.8,512.7075266703985) translate(95.6222839506173 126.40138888888886)"/><path d="M1131.67 283.76c0-4.42 3.6-8 8-8H1392c4.42 0 8 3.58 8 8V458.1c0 4.4-3.58 8-8 8h-252.33c-4.4 0-8-3.6-8-8z" stroke="#000" stroke-opacity="0" fill="#9391ff"/><use xlink:href="#a" transform="matrix(1,0,0,1,1136.4736439959781,280.561794696518) translate(62.95679012345683 72.69305555555555)"/><use xlink:href="#k" transform="matrix(1,0,0,1,1136.4736439959781,280.561794696518) translate(171.35185185185185 72.69305555555555)"/><use xlink:href="#l" transform="matrix(1,0,0,1,1136.4736439959781,280.561794696518) translate(90.1172839506173 126.02638888888886)"/><path d="M1257.08 175.83l3 1.25 2.6 2 2 2.6 1.24 3 .42 3.2v87.38h-1v-87.32l-.4-3-1.14-2.77-1.83-2.4-2.4-1.82-2.75-1.14-3.02-.4h-86.23v-1h86.3zm-360.7.58v-1h104.93v1zM1266.34 275.76h-1v-.5h1zM895.88 180.55l-14.26-4.64 14.26-4.62z" fill="#333"/><path d="M896.38 181.24L880 175.9l16.38-5.3zm-13.14-5.33l12.14 3.96v-7.9z" fill="#333"/><use xlink:href="#m" transform="matrix(1,0,0,1,1001.3115468409587,149.11235893931894) translate(0.0049999999999954525 35.733333333333285)"/><use xlink:href="#n" transform="matrix(1,0,0,1,1001.3115468409587,149.11235893931894) translate(116.63462962962947 35.733333333333285)"/><path d="M976.4 604.32h-80.02v-1h80zm289.94-12.47l-.42 3.2-1.25 3-2 2.6-2.6 2-3 1.25-3.2.42h-112.05v-1h111.98l3.02-.4 2.76-1.14 2.4-1.83 1.82-2.4 1.14-2.75.4-3V466.6h1zM1266.34 466.6h-1v-.5h1zM895.88 608.46l-14.26-4.64 14.26-4.64z" fill="#333"/><path d="M896.38 609.14L880 603.82l16.38-5.32zm-13.14-5.32l12.14 3.95v-7.9z" fill="#333"/><use xlink:href="#o" transform="matrix(1,0,0,1,976.3862524075654,577.1532189430508) translate(0.0049999999999954525 35.55555555555555)"/><use xlink:href="#p" transform="matrix(1,0,0,1,976.3862524075654,577.1532189430508) translate(116.05438271604936 35.55555555555555)"/><path d="M214.66 591.8l.4 3 1.14 2.76 1.83 2.4 2.4 1.82 2.75 1.14 3.02.4h62.73v1h-62.8l-3.2-.42-3-1.24-2.6-2-2-2.6-1.25-3-.42-3.2V466.58h1zm368.96 11.52v1H455.2v-1z" fill="#333"/><path d="M214.66 466.6h-1v-.5h1zM598.38 603.82l-14.26 4.64v-9.28z" fill="#333"/><path d="M600 603.82l-16.38 5.32V598.5zm-15.38 3.95l12.14-3.95-12.14-3.95z" fill="#333"/><use xlink:href="#q" transform="matrix(1,0,0,1,288.928740396296,577.0198856097174) translate(0.0049999999999954525 35.7333333333333)"/><use xlink:href="#r" transform="matrix(1,0,0,1,288.928740396296,577.0198856097174) translate(116.6346296296295 35.7333333333333)"/><path d="M585.27 371.42v1h-27.15v-1zm-236.44 0v-1h43.03v1z" fill="#333"/><path d="M348.84 371.42h-.5v-1h.5zM600.04 371.92l-14.27 4.64v-9.27z" fill="#333"/><path d="M601.66 371.92l-16.4 5.33V366.6zm-15.4 3.95l12.16-3.95-12.15-3.94z" fill="#333"/><g><use xlink:href="#q" transform="matrix(1,0,0,1,391.8625113461385,344.6241996810136) translate(0.0049999999999954525 35.7333333333333)"/><use xlink:href="#s" transform="matrix(1,0,0,1,391.8625113461385,344.6241996810136) translate(116.6346296296295 35.7333333333333)"/></g><path d="M934.3 372.42h-39.57v-1h39.56zm196.87-1h-55.44v-1h55.44zM1131.67 371.42h-.5v-1h.5zM894.23 376.56l-14.27-4.64 14.27-4.63z" fill="#333"/><path d="M894.73 377.25l-16.4-5.33 16.4-5.32zm-13.15-5.33l12.15 3.95v-7.9z" fill="#333"/><g><use xlink:href="#q" transform="matrix(1,0,0,1,934.2869058662668,344.6241996810136) translate(0.0049999999999954525 35.7333333333333)"/><use xlink:href="#t" transform="matrix(1,0,0,1,934.2869058662668,344.6241996810136) translate(116.6346296296295 35.7333333333333)"/></g><path d="M311.06 176.4H226.2l-3.02.4-2.76 1.15-2.4 1.83-1.82 2.4-1.14 2.75-.4 3v87.33h-1v-87.38l.42-3.2 1.25-3 2-2.6 2.6-2 3-1.25 3.2-.42h84.93zm272.56 0H452.5v-1h131.12z" fill="#333"/><path d="M214.66 275.76h-1v-.5h1zM598.38 175.9l-14.26 4.65v-9.27z" fill="#333"/><path d="M600 175.9l-16.38 5.34V170.6zm-15.38 3.96l12.14-3.95-12.14-3.93z" fill="#333"/><g><use xlink:href="#q" transform="matrix(1,0,0,1,311.0574444125755,149.1123589393189) translate(0.0049999999999954525 35.7333333333333)"/><use xlink:href="#t" transform="matrix(1,0,0,1,311.0574444125755,149.1123589393189) translate(116.6346296296295 35.7333333333333)"/></g><defs><path fill="#fff" d="M240 0l2-218c-23 76-54 145-80 218h-23L58-218 59 0H30v-248h44l77 211c21-75 51-140 76-211h43V0h-30" id="u"/><path fill="#fff" d="M24-231v-30h32v30H24zM24 0v-190h32V0H24" id="v"/><path fill="#fff" d="M117-194c89-4 53 116 60 194h-32v-121c0-31-8-49-39-48C34-167 62-67 57 0H25l-1-190h30c1 10-1 24 2 32 11-22 29-35 61-36" id="w"/><path fill="#fff" d="M100-194c63 0 86 42 84 106H49c0 40 14 67 53 68 26 1 43-12 49-29l28 8c-11 28-37 45-77 45C44 4 14-33 15-96c1-61 26-98 85-98zm52 81c6-60-76-77-97-28-3 7-6 17-6 28h103" id="x"/><g id="a"><use transform="matrix(0.12345679012345674,0,0,0.12345679012345674,0,0)" xlink:href="#u"/><use transform="matrix(0.12345679012345674,0,0,0.12345679012345674,36.91358024691357,0)" xlink:href="#v"/><use transform="matrix(0.12345679012345674,0,0,0.12345679012345674,46.66666666666665,0)" xlink:href="#w"/><use transform="matrix(0.12345679012345674,0,0,0.12345679012345674,71.358024691358,0)" xlink:href="#x"/></g><path fill="#fff" d="M27 0v-27h64v-190l-56 39v-29l58-41h29v221h61V0H27" id="y"/><use transform="matrix(0.12345679012345674,0,0,0.12345679012345674,0,0)" xlink:href="#y" id="b"/><path fill="#fff" d="M87 75C49 33 22-17 22-94c0-76 28-126 65-167h31c-38 41-64 92-64 168S80 34 118 75H87" id="z"/><path fill="#fff" d="M54-142c48-35 137-8 131 61C196 18 31 33 14-55l32-4c7 23 22 37 52 37 35-1 51-22 54-58 4-55-73-65-99-34H22l8-134h141v27H59" id="A"/><path fill="#fff" d="M33-261c38 41 65 92 65 168S71 34 33 75H2C39 34 66-17 66-93S39-220 2-261h31" id="B"/><g id="c"><use transform="matrix(0.12345679012345674,0,0,0.12345679012345674,0,0)" xlink:href="#z"/><use transform="matrix(0.12345679012345674,0,0,0.12345679012345674,14.691358024691352,0)" xlink:href="#A"/><use transform="matrix(0.12345679012345674,0,0,0.12345679012345674,39.3827160493827,0)" xlink:href="#A"/><use transform="matrix(0.12345679012345674,0,0,0.12345679012345674,64.07407407407405,0)" xlink:href="#B"/></g><path fill="#282c33" d="M63-220v92h138v28H63V0H30v-248h175v28H63" id="C"/><path fill="#282c33" d="M141-36C126-15 110 5 73 4 37 3 15-17 15-53c-1-64 63-63 125-63 3-35-9-54-41-54-24 1-41 7-42 31l-33-3c5-37 33-52 76-52 45 0 72 20 72 64v82c-1 20 7 32 28 27v20c-31 9-61-2-59-35zM48-53c0 20 12 33 32 33 41-3 63-29 60-74-43 2-92-5-92 41" id="D"/><path fill="#282c33" d="M96-169c-40 0-48 33-48 73s9 75 48 75c24 0 41-14 43-38l32 2c-6 37-31 61-74 61-59 0-76-41-82-99-10-93 101-131 147-64 4 7 5 14 7 22l-32 3c-4-21-16-35-41-35" id="E"/><path fill="#282c33" d="M59-47c-2 24 18 29 38 22v24C64 9 27 4 27-40v-127H5v-23h24l9-43h21v43h35v23H59v120" id="F"/><path fill="#282c33" d="M100-194c62-1 85 37 85 99 1 63-27 99-86 99S16-35 15-95c0-66 28-99 85-99zM99-20c44 1 53-31 53-75 0-43-8-75-51-75s-53 32-53 75 10 74 51 75" id="G"/><path fill="#282c33" d="M114-163C36-179 61-72 57 0H25l-1-190h30c1 12-1 29 2 39 6-27 23-49 58-41v29" id="H"/><path fill="#282c33" d="M179-190L93 31C79 59 56 82 12 73V49c39 6 53-20 64-50L1-190h34L92-34l54-156h33" id="I"/><g id="d"><use transform="matrix(0.12345679012345674,0,0,0.12345679012345674,0,0)" xlink:href="#C"/><use transform="matrix(0.12345679012345674,0,0,0.12345679012345674,27.037037037037027,0)" xlink:href="#D"/><use transform="matrix(0.12345679012345674,0,0,0.12345679012345674,51.72839506172838,0)" xlink:href="#E"/><use transform="matrix(0.12345679012345674,0,0,0.12345679012345674,73.95061728395059,0)" xlink:href="#F"/><use transform="matrix(0.12345679012345674,0,0,0.12345679012345674,86.29629629629626,0)" xlink:href="#G"/><use transform="matrix(0.12345679012345674,0,0,0.12345679012345674,110.98765432098762,0)" xlink:href="#H"/><use transform="matrix(0.12345679012345674,0,0,0.12345679012345674,125.67901234567897,0)" xlink:href="#I"/></g><path fill="#282c33" d="M27 0v-27h64v-190l-56 39v-29l58-41h29v221h61V0H27" id="J"/><use transform="matrix(0.12345679012345674,0,0,0.12345679012345674,0,0)" xlink:href="#J" id="e"/><path fill="#282c33" d="M87 75C49 33 22-17 22-94c0-76 28-126 65-167h31c-38 41-64 92-64 168S80 34 118 75H87" id="K"/><path fill="#282c33" d="M126-127c33 6 58 20 58 59 0 88-139 92-164 29-3-8-5-16-6-25l32-3c6 27 21 44 54 44 32 0 52-15 52-46 0-38-36-46-79-43v-28c39 1 72-4 72-42 0-27-17-43-46-43-28 0-47 15-49 41l-32-3c6-42 35-63 81-64 48-1 79 21 79 65 0 36-21 52-52 59" id="L"/><path fill="#282c33" d="M101-251c68 0 85 55 85 127S166 4 100 4C33 4 14-52 14-124c0-73 17-127 87-127zm-1 229c47 0 54-49 54-102s-4-102-53-102c-51 0-55 48-55 102 0 53 5 102 54 102" id="M"/><path fill="#282c33" d="M33-261c38 41 65 92 65 168S71 34 33 75H2C39 34 66-17 66-93S39-220 2-261h31" id="N"/><g id="f"><use transform="matrix(0.12345679012345674,0,0,0.12345679012345674,0,0)" xlink:href="#K"/><use transform="matrix(0.12345679012345674,0,0,0.12345679012345674,14.691358024691352,0)" xlink:href="#L"/><use transform="matrix(0.12345679012345674,0,0,0.12345679012345674,39.3827160493827,0)" xlink:href="#M"/><use transform="matrix(0.12345679012345674,0,0,0.12345679012345674,64.07407407407405,0)" xlink:href="#N"/></g><path fill="#282c33" d="M101-251c82-7 93 87 43 132L82-64C71-53 59-42 53-27h129V0H18c2-99 128-94 128-182 0-28-16-43-45-43s-46 15-49 41l-32-3c6-41 34-60 81-64" id="O"/><use transform="matrix(0.12345679012345674,0,0,0.12345679012345674,0,0)" xlink:href="#O" id="g"/><path fill="#282c33" d="M155-56V0h-30v-56H8v-25l114-167h33v167h35v25h-35zm-30-156c-27 46-58 90-88 131h88v-131" id="P"/><g id="h"><use transform="matrix(0.12345679012345674,0,0,0.12345679012345674,0,0)" xlink:href="#K"/><use transform="matrix(0.12345679012345674,0,0,0.12345679012345674,14.691358024691352,0)" xlink:href="#P"/><use transform="matrix(0.12345679012345674,0,0,0.12345679012345674,39.3827160493827,0)" xlink:href="#M"/><use transform="matrix(0.12345679012345674,0,0,0.12345679012345674,64.07407407407405,0)" xlink:href="#N"/></g><use transform="matrix(0.12345679012345674,0,0,0.12345679012345674,0,0)" xlink:href="#L" id="i"/><path fill="#282c33" d="M54-142c48-35 137-8 131 61C196 18 31 33 14-55l32-4c7 23 22 37 52 37 35-1 51-22 54-58 4-55-73-65-99-34H22l8-134h141v27H59" id="Q"/><g id="j"><use transform="matrix(0.12345679012345674,0,0,0.12345679012345674,0,0)" xlink:href="#K"/><use transform="matrix(0.12345679012345674,0,0,0.12345679012345674,14.691358024691352,0)" xlink:href="#Q"/><use transform="matrix(0.12345679012345674,0,0,0.12345679012345674,39.3827160493827,0)" xlink:href="#M"/><use transform="matrix(0.12345679012345674,0,0,0.12345679012345674,64.07407407407405,0)" xlink:href="#N"/></g><path fill="#fff" d="M101-251c82-7 93 87 43 132L82-64C71-53 59-42 53-27h129V0H18c2-99 128-94 128-182 0-28-16-43-45-43s-46 15-49 41l-32-3c6-41 34-60 81-64" id="R"/><use transform="matrix(0.12345679012345674,0,0,0.12345679012345674,0,0)" xlink:href="#R" id="k"/><path fill="#fff" d="M110-160c48 1 74 30 74 79 0 53-28 85-80 85-65 0-83-55-86-122-5-90 50-162 133-122 14 7 22 21 27 39l-31 6c-5-40-67-38-82-6-9 19-15 44-15 74 11-20 30-34 60-33zm-7 138c34 0 49-23 49-58s-16-56-50-56c-29 0-50 16-49 49 1 36 15 65 50 65" id="S"/><g id="l"><use transform="matrix(0.12345679012345674,0,0,0.12345679012345674,0,0)" xlink:href="#z"/><use transform="matrix(0.12345679012345674,0,0,0.12345679012345674,14.691358024691352,0)" xlink:href="#S"/><use transform="matrix(0.12345679012345674,0,0,0.12345679012345674,39.3827160493827,0)" xlink:href="#A"/><use transform="matrix(0.12345679012345674,0,0,0.12345679012345674,64.07407407407405,0)" xlink:href="#B"/></g><path fill="#333" d="M185-189c-5-48-123-54-124 2 14 75 158 14 163 119 3 78-121 87-175 55-17-10-28-26-33-46l33-7c5 56 141 63 141-1 0-78-155-14-162-118-5-82 145-84 179-34 5 7 8 16 11 25" id="T"/><path fill="#333" d="M100-194c63 0 86 42 84 106H49c0 40 14 67 53 68 26 1 43-12 49-29l28 8c-11 28-37 45-77 45C44 4 14-33 15-96c1-61 26-98 85-98zm52 81c6-60-76-77-97-28-3 7-6 17-6 28h103" id="U"/><path fill="#333" d="M117-194c89-4 53 116 60 194h-32v-121c0-31-8-49-39-48C34-167 62-67 57 0H25l-1-190h30c1 10-1 24 2 32 11-22 29-35 61-36" id="V"/><path fill="#333" d="M85-194c31 0 48 13 60 33l-1-100h32l1 261h-30c-2-10 0-23-3-31C134-8 116 4 85 4 32 4 16-35 15-94c0-66 23-100 70-100zm9 24c-40 0-46 34-46 75 0 40 6 74 45 74 42 0 51-32 51-76 0-42-9-74-50-73" id="W"/><g id="m"><use transform="matrix(0.1240740740740739,0,0,0.1240740740740739,0,0)" xlink:href="#T"/><use transform="matrix(0.1240740740740739,0,0,0.1240740740740739,29.777777777777736,0)" xlink:href="#U"/><use transform="matrix(0.1240740740740739,0,0,0.1240740740740739,54.59259259259252,0)" xlink:href="#V"/><use transform="matrix(0.1240740740740739,0,0,0.1240740740740739,79.4074074074073,0)" xlink:href="#W"/></g><path fill="#333" d="M126-127c33 6 58 20 58 59 0 88-139 92-164 29-3-8-5-16-6-25l32-3c6 27 21 44 54 44 32 0 52-15 52-46 0-38-36-46-79-43v-28c39 1 72-4 72-42 0-27-17-43-46-43-28 0-47 15-49 41l-32-3c6-42 35-63 81-64 48-1 79 21 79 65 0 36-21 52-52 59" id="X"/><path fill="#333" d="M101-251c68 0 85 55 85 127S166 4 100 4C33 4 14-52 14-124c0-73 17-127 87-127zm-1 229c47 0 54-49 54-102s-4-102-53-102c-51 0-55 48-55 102 0 53 5 102 54 102" id="Y"/><g id="n"><use transform="matrix(0.1240740740740739,0,0,0.1240740740740739,0,0)" xlink:href="#X"/><use transform="matrix(0.1240740740740739,0,0,0.1240740740740739,24.81481481481478,0)" xlink:href="#Y"/></g><g id="o"><use transform="matrix(0.12345679012345677,0,0,0.12345679012345677,0,0)" xlink:href="#T"/><use transform="matrix(0.12345679012345677,0,0,0.12345679012345677,29.629629629629626,0)" xlink:href="#U"/><use transform="matrix(0.12345679012345677,0,0,0.12345679012345677,54.32098765432098,0)" xlink:href="#V"/><use transform="matrix(0.12345679012345677,0,0,0.12345679012345677,79.01234567901233,0)" xlink:href="#W"/></g><path fill="#333" d="M54-142c48-35 137-8 131 61C196 18 31 33 14-55l32-4c7 23 22 37 52 37 35-1 51-22 54-58 4-55-73-65-99-34H22l8-134h141v27H59" id="Z"/><g id="p"><use transform="matrix(0.12345679012345677,0,0,0.12345679012345677,0,0)" xlink:href="#X"/><use transform="matrix(0.12345679012345677,0,0,0.12345679012345677,24.691358024691354,0)" xlink:href="#Z"/></g><g id="q"><use transform="matrix(0.12407407407407395,0,0,0.12407407407407395,0,0)" xlink:href="#T"/><use transform="matrix(0.12407407407407395,0,0,0.12407407407407395,29.777777777777747,0)" xlink:href="#U"/><use transform="matrix(0.12407407407407395,0,0,0.12407407407407395,54.59259259259254,0)" xlink:href="#V"/><use transform="matrix(0.12407407407407395,0,0,0.12407407407407395,79.40740740740733,0)" xlink:href="#W"/></g><path fill="#333" d="M27 0v-27h64v-190l-56 39v-29l58-41h29v221h61V0H27" id="aa"/><g id="r"><use transform="matrix(0.12407407407407395,0,0,0.12407407407407395,0,0)" xlink:href="#aa"/><use transform="matrix(0.12407407407407395,0,0,0.12407407407407395,24.81481481481479,0)" xlink:href="#Z"/></g><path fill="#333" d="M155-56V0h-30v-56H8v-25l114-167h33v167h35v25h-35zm-30-156c-27 46-58 90-88 131h88v-131" id="ab"/><g id="s"><use transform="matrix(0.12407407407407395,0,0,0.12407407407407395,0,0)" xlink:href="#ab"/><use transform="matrix(0.12407407407407395,0,0,0.12407407407407395,24.81481481481479,0)" xlink:href="#Y"/></g><use transform="matrix(0.12407407407407395,0,0,0.12407407407407395,0,0)" xlink:href="#Y" id="t"/></defs></g></svg>